<svg width="517" height="327" viewBox="0 0 517 327" fill="none" xmlns="http://www.w3.org/2000/svg">
<g clip-path="url(#clip0)">
<path d="M276.991 122.762C295.358 139.143 309.009 158.503 312.98 179.6C315.71 193.747 318.688 210.625 309.505 223.531C298.088 239.416 274.261 250.585 254.901 258.775C228.592 270.192 200.297 278.135 171.01 282.851C152.643 285.829 133.78 287.318 115.661 284.588C53.1148 275.405 18.8632 224.524 4.96404 178.855C-0.49635 160.985 -1.48915 141.873 5.46044 124.499C16.3812 97.6937 46.1652 77.3413 79.9204 69.1508C113.676 60.9602 150.409 63.9386 183.42 73.3702C216.43 82.5535 251.426 99.9275 276.991 122.762Z" fill="#98F7E3"/>
<path d="M135.02 242.394C138.247 256.293 146.686 268.703 160.833 278.631C170.265 285.084 179.945 289.056 188.88 296.005C199.056 303.948 210.225 310.649 222.139 315.365C236.534 321.073 251.178 325.045 266.318 326.534C266.318 326.534 396.871 326.534 397.367 326.534C398.608 326.534 417.472 315.365 421.443 312.635C424.421 310.401 427.648 308.415 430.626 306.181C487.216 263.987 545.046 181.833 502.356 110.848C497.888 103.402 492.428 96.4526 485.478 89.9994C459.169 66.4205 414.493 56.9889 372.051 56.2443C325.39 55.2515 278.48 63.4421 237.775 79.575C223.628 85.0354 210.225 91.7368 198.311 99.6792C172.25 117.301 155.621 140.88 144.948 165.452C134.276 190.272 129.064 216.829 135.02 242.394Z" fill="#FFB3D6"/>
<path d="M137.254 239.168C145.941 253.563 172.25 261.506 186.398 263.739C206.502 266.718 227.351 264.236 247.207 260.265C257.135 258.279 267.311 256.045 276.742 252.322C286.174 248.599 295.109 243.635 303.052 237.43C308.016 233.459 312.98 228.991 316.206 223.531C319.433 218.319 321.418 212.114 322.908 206.157C325.638 194.74 326.879 183.074 326.382 171.409C326.134 164.211 326.631 155.524 324.645 148.575C322.411 140.632 313.972 134.924 308.264 129.96C300.073 122.762 283.692 130.704 274.757 124.251C247.951 97.4455 220.649 86.7729 220.649 86.7729C220.649 86.7729 206.254 93.7225 197.815 99.4311C171.258 117.798 156.862 138.15 146.189 162.474C137.502 182.578 128.567 211.866 134.772 233.955C135.517 235.941 136.261 237.678 137.254 239.168Z" fill="#B5A2CA"/>
<path d="M402.58 221.297C402.828 222.29 403.076 223.283 403.324 224.276C410.522 258.279 387.936 298.239 362.123 318.84C356.911 323.059 350.706 327.03 343.756 327.03H239.264C240.009 326.534 239.264 325.293 238.52 325.045C226.358 321.074 211.714 322.066 198.808 320.577C184.66 318.84 170.761 316.854 156.862 314.372C129.312 309.656 102.258 303.451 75.2043 296.998C58.5749 293.027 41.4492 288.559 27.0536 279.376C14.3954 271.185 0.744407 256.542 -0.000192359 240.657C-0.744792 224.524 11.417 212.61 24.0752 204.668C59.3195 183.075 105.485 178.359 145.693 172.402C159.592 170.416 173.491 171.161 187.391 170.665C211.218 169.672 234.3 165.701 258.376 165.452C283.444 165.204 308.512 166.197 332.836 171.161C348.224 174.139 363.364 178.855 376.519 187.542C388.432 195.236 398.609 207.398 402.58 221.297Z" fill="#DBF7E3"/>
<path d="M341.771 326.782C341.771 297.495 341.027 268.207 341.027 239.168C341.027 233.955 343.757 225.02 339.041 222.042C336.807 220.553 334.325 220.304 331.843 220.304C326.631 220.056 321.667 220.801 316.703 221.794C304.541 223.779 292.628 226.509 280.466 228.991C269.049 231.473 257.383 233.955 245.966 236.437C241.747 237.43 231.57 238.919 231.57 238.919L231.322 243.883V327.03H341.771V326.782Z" fill="#B8D1D1"/>
<path d="M232.563 326.782C232.563 326.037 232.563 325.044 232.563 324.3V246.117C230.329 247.358 217.423 240.408 214.444 239.415C206.502 236.933 198.56 234.451 190.617 232.466C174.733 228.246 158.6 224.772 142.467 220.8C109.704 212.61 76.4454 205.908 43.1867 199.207C42.6903 199.207 41.9457 198.959 41.6975 199.455C41.2011 199.455 39.7119 199.455 39.7119 200.2C39.9601 209.135 39.4637 217.822 39.4637 226.757C39.4637 250.584 38.9673 297.991 38.9673 297.991L122.114 326.782H232.563Z" fill="#A7C0C7"/>
<path d="M363.612 128.222C365.102 120.776 365.846 112.834 361.875 106.38C357.407 99.1825 348.472 96.2041 340.033 94.4667C314.221 88.7581 287.663 88.2617 261.602 92.2329C235.79 96.4523 233.804 126.236 228.84 147.83C223.876 169.919 220.898 193.995 231.074 214.347C233.308 218.815 236.038 223.034 239.761 226.509C241.995 228.743 244.973 231.473 247.951 232.466C251.674 233.707 257.135 232.962 261.106 233.21C270.289 233.459 279.721 233.707 289.153 233.459C299.329 233.21 309.505 232.962 319.433 230.48C324.645 229.239 329.609 227.502 334.077 225.02C339.289 222.29 340.033 220.056 341.274 214.099C347.976 186.301 355.67 158.75 362.371 130.952C363.116 130.208 363.364 129.215 363.612 128.222Z" fill="#7E98A2"/>
<path d="M339.537 137.157C339.537 135.668 339.537 134.427 339.289 132.937C338.296 127.974 335.814 122.761 333.332 118.542C329.113 111.096 323.901 103.154 315.958 99.1823C307.271 94.7147 293.372 97.1967 283.94 98.1895C278.728 98.6859 273.516 99.6787 269.297 102.409C266.07 104.643 263.588 107.621 261.602 110.848C253.164 124.499 251.178 141.128 250.434 157.013C249.937 167.685 250.185 178.358 251.675 188.782C252.419 193.746 253.164 196.973 256.142 200.944C259.12 204.667 262.099 208.142 266.318 210.624C269.545 212.61 273.268 213.851 277.239 214.843C285.926 217.325 294.861 219.063 303.796 220.552C307.519 221.048 311.739 221.545 314.965 219.559C316.455 218.566 317.696 217.325 318.937 216.084C321.419 213.106 323.404 209.879 325.142 206.653C327.872 200.944 329.609 194.739 331.098 188.534C334.077 176.124 336.311 163.466 337.8 150.808C338.544 146.588 339.537 141.624 339.537 137.157Z" fill="#728691"/>
<path d="M90.5928 124.499C88.6072 128.47 87.3662 133.186 87.118 138.15C86.8698 140.88 87.118 143.61 87.8626 146.34C88.6072 148.822 89.8482 151.304 91.3374 152.545C92.3302 153.29 93.5712 153.786 94.564 153.786C97.2942 154.034 100.769 153.042 102.01 149.07C102.755 146.34 102.01 143.362 101.265 140.632C99.528 133.186 95.5568 126.981 90.5928 124.499Z" fill="#60C769"/>
<path d="M101.265 133.434C101.514 133.186 101.514 132.938 101.762 132.689C106.726 126.236 113.675 120.279 119.384 118.542C119.88 121.272 119.136 124.995 119.136 127.974C119.136 131.448 118.639 135.171 117.895 138.894C116.157 146.092 113.179 153.538 108.96 159.247C106.478 162.722 103.499 165.7 100.273 167.189C97.2943 168.678 94.0677 168.43 92.3303 165.948C87.3663 158.75 95.8051 141.128 101.265 133.434Z" fill="#66B166"/>
<path d="M121.618 172.401C121.121 171.16 119.384 170.664 118.143 170.416C107.47 168.182 96.3013 168.43 85.3805 168.678C84.1395 168.678 82.8985 168.678 81.6575 169.423C81.4093 169.671 81.1611 169.671 80.9129 170.168C80.6647 170.912 81.4093 171.16 82.1539 171.409C89.3517 173.642 96.5495 173.891 103.996 174.139C105.981 173.891 121.866 173.146 121.618 172.401Z" fill="#9CA3A5"/>
<path d="M80.9132 164.708C79.6722 162.97 78.4312 160.985 77.6866 158.999C74.9564 152.298 74.7082 144.355 75.701 136.661C75.9492 134.427 88.6074 138.895 89.6002 139.391C94.5642 142.121 98.5354 146.093 101.762 150.56C105.733 156.021 108.215 163.715 109.456 170.664C99.5282 170.168 87.3664 173.146 80.9132 164.708Z" fill="#A9E095"/>
<path d="M188.632 183.57C186.646 187.541 184.661 193.002 187.143 196.476C189.625 200.199 197.319 200.944 201.538 199.951C208.736 198.214 213.948 191.264 218.168 185.556C232.067 166.693 245.966 146.34 249.193 123.009C249.689 119.286 249.441 114.819 245.966 113.33C239.016 110.848 230.826 116.804 226.855 121.52C218.664 130.952 212.459 141.873 206.502 152.545C201.29 161.729 196.078 170.912 190.866 180.095C189.873 181.336 189.376 182.329 188.632 183.57Z" fill="#DAA167"/>
<path d="M211.714 141.377C206.998 136.909 214.196 129.96 216.678 125.74C220.153 120.032 224.621 114.819 229.833 110.352C232.067 108.614 234.549 106.877 237.527 106.877C249.937 107.622 241.25 135.172 239.016 141.625C238.023 144.603 236.534 147.83 234.3 150.312C226.11 159.247 217.919 147.085 211.714 141.377Z" fill="#006570"/>
<path d="M206.254 201.193C205.509 212.858 204.765 222.538 217.919 226.757C223.131 228.495 228.592 228.495 234.052 228.495C253.164 228.743 272.523 228.991 291.386 225.516C296.599 224.524 302.059 223.283 306.278 220.304C316.703 213.106 316.206 192.754 317.944 181.585C319.185 173.643 319.185 164.956 321.667 157.261C323.652 150.808 325.141 144.107 326.382 137.405C328.368 127.229 330.105 116.308 324.893 107.373C321.17 101.168 314.717 96.7007 307.767 93.2259C302.059 90.2475 293.372 84.5389 286.671 84.2907C269.297 83.5461 251.923 91.7367 239.016 101.665C232.315 106.877 227.847 112.337 224.372 119.535C220.649 127.974 218.912 136.909 216.678 145.596C213.452 159.743 210.225 173.891 207.247 188.286C206.998 192.754 206.502 196.973 206.254 201.193Z" fill="#007F8B"/>
<path d="M241.25 41.8483C242.74 38.1253 243.484 34.4024 243.981 30.4312C244.229 27.9492 244.725 24.9708 242.243 23.7298C236.038 20.5032 235.046 29.9348 235.79 33.6578C236.287 35.3951 236.783 36.8843 237.776 38.3735C238.024 38.8699 241.25 41.8483 241.25 41.8483Z" fill="#86614D"/>
<path d="M289.152 81.3123C290.145 84.2907 291.386 87.2691 289.401 90.7439C288.408 92.2331 286.919 93.4741 285.429 94.7151C280.962 97.6935 275.75 99.4309 270.537 100.176C266.07 100.672 259.368 102.409 257.383 96.9489C260.609 93.9705 260.858 90.2475 260.858 86.0281C260.858 81.5605 260.113 76.5965 258.624 72.3771C260.113 73.1217 262.099 73.6181 263.588 73.3699C265.325 73.3699 266.566 71.6325 268.055 70.6397C270.289 69.1505 272.523 67.6614 274.509 65.924C276.246 64.4348 277.735 62.6974 279.224 60.96C279.969 59.9672 282.203 55.996 283.444 55.7478C287.415 54.755 287.911 67.4132 288.16 69.3987C288.656 72.8735 288.408 79.3267 289.152 81.3123Z" fill="#E3B177"/>
<path d="M286.918 63.9382C285.181 68.4058 282.947 72.8734 280.217 76.8446C277.239 80.8158 273.516 84.0424 268.8 85.7798C267.559 86.2762 265.573 86.2762 264.332 85.7798C263.34 85.5316 262.099 84.787 261.602 83.7942C261.354 83.2978 261.106 82.5532 260.858 81.8086C260.361 78.8302 259.617 75.8518 259.12 72.6252C263.836 73.1216 269.048 72.6252 273.516 70.1432C277.239 68.1576 280.465 65.1792 282.699 61.7044C283.195 60.7116 283.94 59.7188 284.933 59.2224C288.408 57.7332 287.663 62.2008 286.918 63.9382Z" fill="#DAA167"/>
<path d="M240.258 27.4528C240.754 21.7442 241.747 15.2911 245.718 10.8235C249.193 7.10047 255.894 4.37027 260.858 4.12207C265.078 4.12207 269.049 5.11487 272.772 6.60407C278.232 8.83786 283.444 11.8163 287.167 16.5321C288.656 18.5177 289.897 20.9997 290.642 23.4816C291.138 25.219 290.89 28.942 292.131 30.183C292.628 30.6794 293.372 30.6794 294.117 30.9276C295.854 31.424 297.343 32.9132 298.336 34.6506C299.081 36.388 299.329 38.3736 299.329 40.3592C299.329 42.593 298.584 45.075 297.095 47.0606C295.606 49.0462 294.613 50.2872 292.131 49.7908C290.89 52.521 289.153 55.4994 287.664 58.4778C286.174 61.4562 284.437 64.4346 282.452 67.1648C278.977 71.8806 272.524 74.859 266.567 74.859C260.858 74.859 256.142 72.377 251.675 68.9022C244.725 63.4418 241.25 54.5066 240.009 46.0678C239.513 40.111 239.761 33.6578 240.258 27.4528Z" fill="#EFC489"/>
<path d="M240.505 22.2408C240.505 24.971 239.016 29.935 241.746 31.176C246.214 32.9134 251.923 31.9206 256.39 30.9278C261.602 29.6868 266.815 27.9494 272.027 26.9566C274.509 26.4602 277.487 26.212 279.721 27.2048C276.991 21.9926 272.027 19.5106 266.566 17.7732C261.602 16.0358 256.142 15.043 250.93 16.7804C247.703 17.7732 244.973 19.7588 242.243 21.9926C241.746 22.2408 240.505 22.2408 240.505 22.2408Z" fill="#DAA167"/>
<path d="M302.059 35.6433C302.307 32.9131 302.307 30.1829 302.059 27.4527C301.811 25.2189 301.563 22.9851 300.57 20.7513C299.825 19.0139 299.081 17.2765 297.84 16.0355C296.847 15.2909 295.854 14.5463 294.861 13.8017C294.613 13.8017 294.613 13.5535 294.365 13.3053C294.117 12.5607 295.11 12.0643 294.861 11.3197C294.861 11.0715 294.613 10.8234 294.365 10.5752C291.883 7.84495 287.912 7.10036 284.437 5.85936C284.189 5.85936 283.941 5.61116 283.941 5.36296C283.941 5.11476 284.189 4.86656 284.189 4.86656C284.437 4.61836 284.189 4.12196 283.941 3.62556C283.692 3.37736 283.196 3.12916 282.948 3.12916C275.75 0.398964 267.808 0.150764 260.362 2.38456C259.369 2.63276 258.376 2.88096 257.383 2.63276C258.128 2.38456 257.88 1.14356 257.135 0.647164C256.39 0.150764 255.646 0.398964 254.901 0.398964C252.916 0.647164 251.178 1.14356 249.441 2.13636C246.711 3.62556 243.98 5.11476 241.747 7.10036C239.513 9.08595 237.775 11.8161 237.279 14.7945C237.031 16.5319 237.279 18.2693 237.527 20.0067C238.272 25.2189 240.257 29.4383 245.966 29.1901C251.426 28.9419 256.39 27.2045 261.603 25.9635C266.318 24.7225 270.538 24.4743 275.254 24.9707C275.75 24.9707 275.998 24.9707 276.246 25.2189C276.495 25.4671 276.495 25.7153 276.743 25.9635C277.239 27.2045 277.984 28.4455 278.232 29.6865C278.48 30.9275 278.977 32.1685 280.218 32.6649C280.962 32.9131 281.955 32.6649 282.7 33.1613C282.948 33.4095 283.196 33.9059 283.444 34.1541C284.933 37.6289 285.43 41.3519 285.43 45.0749C286.423 45.5713 287.415 45.5713 288.408 45.5713C289.153 45.5713 290.642 35.1469 290.89 33.9059C290.89 33.4095 291.138 32.6649 291.387 32.4167C292.876 30.4311 295.606 32.1685 296.599 33.6577C298.088 35.3951 298.833 37.8771 298.833 40.1109C298.584 43.8339 294.613 49.2943 290.146 48.3015C290.642 48.3015 286.423 59.9669 286.423 59.9669C285.926 61.4561 287.664 66.9165 289.897 66.1719C290.642 60.4633 294.365 55.7475 297.095 50.7835C299.825 46.3159 301.563 41.1037 302.059 35.6433Z" fill="#9C715A"/>
<path d="M269.297 58.726C269.297 58.726 269.297 58.9742 269.297 58.726C269.545 58.9742 269.545 59.2224 269.545 59.4706C269.793 61.208 269.545 63.69 268.552 65.1792C267.559 66.6684 265.574 67.413 263.836 67.6612C261.106 68.1576 258.376 66.9166 255.894 65.4274C253.66 64.1864 251.426 60.2152 252.667 59.4706C252.916 59.2224 253.164 59.2224 253.412 59.2224C255.646 58.9742 257.88 59.2224 259.865 59.2224C262.099 58.9742 264.333 58.726 266.567 58.2296C267.063 58.2296 267.559 57.9814 268.056 57.9814C268.552 58.2296 269.049 58.4778 269.297 58.726Z" fill="white"/>
<path d="M255.397 51.7765C255.149 51.7765 254.901 51.7765 254.901 51.7765C255.397 52.2729 255.894 53.0175 256.39 53.5139C257.135 54.2585 257.879 55.0031 258.872 54.7549C260.113 54.7549 260.858 53.5139 261.354 52.5211C261.602 52.2729 261.602 51.7765 261.602 51.5283C260.361 51.7765 259.12 51.7765 257.631 51.7765C257.631 51.5283 256.142 51.7765 255.397 51.7765Z" fill="#DAA167"/>
<path opacity="0.05" d="M40.7046 199.455C40.9528 201.689 81.6575 207.149 85.6287 207.894C100.769 210.376 115.661 212.61 130.801 214.595C166.045 219.063 201.29 222.041 236.782 223.53C254.405 224.275 272.275 224.523 289.897 224.275C306.526 224.275 341.523 219.311 341.523 219.311L340.282 243.883C340.282 243.883 235.293 275.652 233.059 275.901C230.826 275.901 228.84 275.404 226.606 274.908C164.556 260.264 102.755 245.372 40.7046 230.728C41.4492 220.304 41.201 209.879 40.7046 199.455Z" fill="black"/>
<path d="M162.323 183.074C155.621 181.585 148.672 179.847 141.722 179.599C134.028 179.351 126.582 180.592 119.136 182.081C89.8482 187.293 25.8127 194.988 25.8127 194.988L25.5645 200.696C25.5645 200.696 68.7512 212.61 83.6432 216.333C116.406 224.275 172.995 237.182 205.757 245.124C212.459 246.861 219.408 248.351 226.358 248.599C232.811 248.847 239.264 247.606 245.718 246.365C266.815 242.394 287.912 238.423 309.009 234.451C323.404 231.721 352.443 225.02 352.443 225.02L352.195 219.311C352.195 219.311 310.498 215.588 303.548 214.347C294.365 212.858 285.43 210.624 276.494 208.639C242.987 200.944 195.581 190.52 162.323 183.074Z" fill="#F4FFFF"/>
<path d="M162.323 177.365C155.621 175.876 148.672 174.139 141.722 173.891C134.028 173.642 126.582 174.883 119.136 176.373C87.8626 182.081 56.5894 188.286 25.5645 194.988C39.7118 200.696 68.7512 206.901 83.6432 210.624C116.406 218.567 172.995 231.473 205.757 239.415C212.459 241.153 219.408 242.642 226.358 242.89C232.811 243.138 239.264 241.897 245.718 240.656C266.815 236.685 287.912 232.714 309.009 228.743C323.404 226.013 338.544 224.275 352.443 219.311C344.005 216.829 311.987 210.128 303.548 208.639C294.365 207.149 285.43 204.916 276.494 202.93C242.987 195.236 195.581 184.811 162.323 177.365Z" fill="#DDEAF0"/>
<path opacity="0.2" d="M191.114 208.638C200.297 210.624 209.481 213.106 218.664 214.099C227.351 215.091 235.79 213.602 244.725 214.843C233.308 217.325 221.891 220.304 210.225 222.786C207.247 223.53 204.02 224.275 201.042 224.275C197.319 224.275 193.348 223.53 189.625 222.537C173.492 218.814 157.359 215.091 141.226 211.368C132.042 209.135 122.859 207.149 114.172 203.426C116.157 202.185 118.143 201.192 120.377 200.696C125.093 199.455 129.808 199.951 134.772 200.696C153.636 202.433 172.499 204.667 191.114 208.638Z" fill="black"/>
<path opacity="0.2" d="M82.8985 195.236C84.1395 192.754 96.3013 194.243 99.0315 194.243C105.236 194.492 111.193 194.988 117.15 196.477C116.902 199.207 110.945 200.448 108.711 200.945C101.017 202.682 93.0747 201.938 85.8769 199.207C84.8841 198.959 84.1395 198.463 83.3949 197.718C82.8985 197.222 82.4021 196.229 82.8985 195.236Z" fill="black"/>
<path d="M238.272 211.369C230.33 210.872 222.387 210.624 214.445 210.872C207.992 211.121 201.538 212.362 195.085 212.113C188.384 211.865 181.931 210.376 175.477 208.887C155.373 204.667 135.517 200.2 115.413 195.98C115.165 197.718 114.917 199.455 116.158 200.696C116.654 201.193 117.399 201.441 118.392 201.689C119.881 202.185 121.37 202.682 122.611 202.93C128.816 204.667 186.398 218.318 199.305 221.049C201.538 221.545 203.772 222.041 206.006 222.29C207.247 222.538 208.736 222.041 209.977 221.793C211.715 221.545 213.204 221.297 214.941 221.049C218.168 220.552 221.643 219.808 224.869 219.311C231.322 218.07 238.024 216.581 244.477 215.092C245.966 214.844 247.455 214.347 248.696 214.099C249.441 213.851 249.937 213.851 250.434 213.106C250.93 212.61 250.93 211.617 250.186 211.369C248.448 210.624 246.214 210.872 244.477 211.121C242.243 211.369 240.258 211.369 238.272 211.369Z" fill="#5A7A88"/>
<path d="M184.412 197.718C178.207 197.469 172.002 198.462 165.797 199.207C162.571 199.703 159.592 199.951 156.366 200.2C154.38 200.448 150.905 201.689 149.168 201.192C165.797 204.667 182.179 209.879 197.815 216.581C198.312 216.829 204.765 218.566 204.765 218.566C204.765 218.566 229.585 215.34 236.038 214.595C240.505 213.851 244.973 213.354 249.441 212.113C249.689 212.113 250.185 211.865 250.185 211.617C250.682 210.624 246.71 210.128 246.214 210.128C244.477 209.631 242.739 209.383 240.754 208.887C237.279 208.142 233.556 207.149 230.081 205.908C228.344 205.412 226.854 204.667 225.117 204.171C222.883 203.674 220.649 203.426 218.416 203.178C215.934 202.93 213.203 202.682 210.721 202.185C207.991 201.689 205.013 200.944 202.283 200.448C196.822 199.207 190.617 197.966 184.412 197.718Z" fill="#86A3AB"/>
<path d="M201.29 172.153C203.524 171.657 206.254 171.408 206.998 173.394C207.495 174.387 206.75 175.628 206.254 176.621C201.538 184.563 192.106 188.286 183.171 190.52C173.988 193.002 164.556 194.243 154.876 194.987C152.643 195.236 149.912 194.739 148.92 192.754C145.693 183.818 195.829 173.642 201.29 172.153Z" fill="#DAA167"/>
<path d="M87.1182 171.905C85.629 171.657 84.1398 171.409 82.6506 171.16C81.906 170.912 81.1614 170.664 81.4096 169.919C78.6794 175.876 82.4024 186.052 83.6434 192.009C83.8916 192.754 84.1398 193.747 84.6362 194.491C85.1326 195.236 86.1254 195.484 87.1182 195.98C95.0606 198.959 103.748 199.703 112.186 198.214C113.179 197.966 113.924 197.966 114.668 197.221C115.165 196.725 115.661 195.98 115.909 195.236C118.143 190.272 118.888 185.06 119.881 179.599C120.873 174.387 118.64 172.65 113.179 172.401C104.492 171.905 95.557 172.898 87.1182 171.905Z" fill="white"/>
<path d="M277.239 189.527C276.742 189.775 276.494 190.024 275.998 190.272C271.53 193.25 267.063 196.228 262.843 199.703C273.268 201.937 283.692 204.171 294.116 206.405C294.861 206.653 295.606 206.653 296.35 206.405C296.847 206.156 297.095 205.908 297.343 205.66C301.066 202.433 303.052 197.966 305.285 193.746C307.519 189.279 309.257 184.563 310.994 180.096C315.213 168.927 321.418 155.276 320.674 143.114C319.185 146.092 318.44 149.567 316.951 152.794C314.717 157.013 312.235 160.736 309.505 164.459C306.775 168.182 303.052 170.664 299.329 173.394C292.131 179.103 284.685 184.563 277.239 189.527Z" fill="#006570"/>
<path opacity="0.2" d="M295.11 206.653C295.11 206.653 256.39 210.128 246.462 211.369C231.57 213.354 216.678 215.836 202.035 212.61C204.02 213.106 208.24 211.12 209.977 210.624C212.707 209.879 215.437 209.383 218.168 208.638C223.876 207.397 229.337 205.908 235.045 204.915C240.754 203.674 246.462 202.682 252.171 201.937C256.887 201.192 266.815 200.448 266.815 200.448L295.11 206.653Z" fill="black"/>
<path d="M202.779 196.973C202.779 196.973 202.531 196.973 202.531 197.221C199.304 198.71 194.092 198.71 190.865 198.71C189.376 198.71 187.887 198.71 186.646 197.717C185.653 196.973 185.405 195.732 185.157 194.491C183.916 187.045 189.128 183.818 195.829 184.066C200.049 184.066 204.02 184.563 208.239 185.556C207.495 189.03 206.502 194.987 202.779 196.973Z" fill="#DAA167"/>
<path d="M298.088 178.607C291.138 186.549 283.692 193.499 273.764 197.718C251.674 207.646 226.606 212.114 202.283 213.355C200.794 213.355 199.056 213.603 197.567 213.107C193.596 212.362 190.369 208.391 190.369 204.42C190.121 194.243 205.758 193.499 212.707 191.265C224.372 187.79 236.038 184.067 247.455 180.592C250.682 179.6 253.66 178.607 256.638 177.118C264.581 173.146 270.041 166.197 275.253 159.247C278.232 155.028 282.451 146.341 288.16 146.341C294.117 146.589 299.825 148.823 304.541 152.546C306.527 154.283 308.512 156.269 309.257 158.751C311.242 165.204 303.3 171.905 299.825 176.125C299.329 177.118 298.832 177.862 298.088 178.607Z" fill="#EFC489"/>
<path d="M116.158 197.966C114.668 196.477 114.172 194.243 113.427 192.258C113.427 188.287 99.0318 137.406 99.5282 136.661C113.924 137.902 176.718 146.589 194.34 149.816C195.333 155.028 205.013 218.319 205.013 218.319C205.013 218.319 118.391 200.697 116.158 197.966Z" fill="#6F909C"/>
<path d="M151.898 183.074C149.665 183.074 147.183 182.578 145.197 181.089C143.211 179.848 141.722 177.614 141.722 175.132C141.722 172.65 143.211 170.416 145.445 169.672C149.665 168.431 156.862 170.913 157.607 175.628C158.352 180.592 155.373 182.826 151.898 183.074Z" fill="white"/>
<path d="M295.11 30.6797C293.621 30.1833 291.635 30.1833 290.394 31.1761C288.905 32.4171 288.657 34.4027 288.657 36.3883C287.664 34.1545 285.43 32.9135 283.693 31.4243C281.955 29.9351 280.466 27.4531 280.962 25.2193C281.211 24.7229 284.437 23.7301 285.182 23.4819C286.423 22.9855 288.657 22.7373 288.905 20.9999C286.175 20.7517 283.196 21.4963 280.466 21.7445C276.743 22.2409 273.268 21.9927 269.545 22.2409C265.574 22.4891 261.851 23.2337 258.128 24.2265C255.646 24.9711 253.164 25.7157 250.434 25.9639C246.959 26.2121 243.236 25.2193 241.747 21.9927C240.258 19.0143 241.002 14.7949 242.491 12.0647C244.725 8.09355 248.696 5.11515 253.412 5.36335C254.157 6.60435 252.171 8.09355 251.923 9.58274C251.923 9.83094 251.923 10.0791 252.171 10.3273C252.419 10.5755 252.668 10.5755 253.164 10.3273C254.653 9.83094 256.142 9.33454 257.383 8.58995C263.092 6.35615 269.297 5.11515 275.75 5.36335C276.743 5.36335 277.984 5.85975 277.736 6.85255C277.488 7.10075 277.239 7.34895 276.991 7.59715C275.75 8.09355 274.757 8.83815 273.516 9.33454C272.772 9.83094 271.779 10.3273 272.027 11.3201C272.275 12.3129 273.516 12.3129 274.261 12.3129C279.473 12.0647 284.189 11.0719 289.401 11.5683C290.394 11.5683 291.635 12.3129 291.387 13.0575C291.387 13.5539 290.642 13.8021 290.146 14.0503C287.912 15.0431 285.678 16.0359 283.444 17.0287C285.182 17.5251 286.919 17.5251 288.657 17.5251C293.124 17.7733 297.095 20.2553 299.577 23.7301C301.563 26.9567 301.315 30.1833 299.826 33.4099C297.84 32.4171 296.599 31.4243 295.11 30.6797Z" fill="#B28876"/>
<path opacity="0.5" d="M285.678 144.851C285.926 144.851 286.175 144.603 286.175 144.355C289.401 136.661 292.131 128.47 294.613 120.528C294.613 120.28 294.613 119.783 294.117 119.783C293.869 119.783 293.372 119.783 293.372 120.28C290.89 128.222 288.16 136.164 284.934 144.107C284.934 144.355 285.182 144.603 285.678 144.851C285.43 144.851 285.678 144.851 285.678 144.851Z" fill="white"/>
<path opacity="0.5" d="M319.93 104.395C320.178 104.395 320.178 104.395 320.426 104.147C320.674 103.898 320.674 103.402 320.426 103.402C312.98 97.4453 304.541 92.9777 295.606 89.5029C295.358 89.5029 294.861 89.5029 294.861 89.7511C294.861 89.9993 294.861 90.4957 295.11 90.4957C304.045 93.7223 312.235 98.4381 319.681 104.147C319.681 104.395 319.681 104.395 319.93 104.395Z" fill="white"/>
<path opacity="0.5" d="M240.009 14.2985C240.257 14.2985 240.505 14.0503 240.505 13.8021C241.002 12.3129 241.746 11.0719 242.739 9.58271C245.469 6.10791 249.937 4.61872 253.66 3.37772C253.908 3.37772 254.156 2.88132 254.156 2.63312C254.156 2.38492 253.66 2.13672 253.412 2.13672C249.44 3.37772 244.725 5.11512 241.994 8.83811C241.002 10.3273 240.257 11.8165 239.512 13.3057C239.264 13.8021 239.512 14.0503 240.009 14.2985C239.761 14.2985 240.009 14.2985 240.009 14.2985Z" fill="white"/>
<path opacity="0.5" d="M257.135 7.59706C264.084 5.11507 271.778 3.87407 278.976 4.12227C279.224 4.12227 279.721 3.87407 279.721 3.62587C279.721 3.37767 279.473 2.88127 279.224 2.88127C271.778 2.63307 264.084 3.87407 257.135 6.35606C256.886 6.35606 256.638 6.85246 256.886 7.10066C256.638 7.59706 256.886 7.59706 257.135 7.59706Z" fill="white"/>
<path opacity="0.5" d="M291.635 11.5681C291.883 11.5681 292.131 11.3199 292.131 11.0717C292.379 10.8235 292.131 10.3271 291.883 10.3271C286.671 8.34148 280.962 8.58968 275.75 9.08608C275.502 9.08608 275.253 9.33428 275.253 9.83068C275.253 10.0789 275.502 10.3271 275.998 10.3271C280.962 10.0789 286.422 9.58248 291.635 11.5681Z" fill="white"/>
<path opacity="0.5" d="M264.829 23.9779C272.771 23.4815 280.714 22.7369 288.656 21.4959C288.904 21.4959 289.152 20.9995 289.152 20.7513C289.152 20.5031 288.904 20.2549 288.408 20.2549C280.714 21.4959 272.771 22.4887 264.829 22.7369C264.581 22.7369 264.333 22.9851 264.333 23.4815C264.333 23.7297 264.581 23.9779 264.829 23.9779Z" fill="white"/>
<path opacity="0.5" d="M245.221 100.176H245.469C249.689 97.4454 254.156 95.2116 258.624 93.226C258.872 92.9778 259.12 92.7296 258.872 92.4814C258.624 92.2332 258.376 91.985 258.128 92.2332C253.412 94.2188 248.944 96.4526 244.725 99.1828C244.477 99.431 244.477 99.6792 244.477 99.9274C244.725 99.9274 244.973 100.176 245.221 100.176Z" fill="white"/>
<path opacity="0.5" d="M361.379 116.308C361.627 116.308 361.875 116.06 361.875 115.812C362.372 112.089 360.634 107.869 357.159 104.643C353.933 101.913 349.962 100.175 346.487 99.1824C339.289 96.7004 331.843 95.2112 324.149 94.7148C323.901 94.7148 323.404 94.963 323.404 95.2112C323.404 95.4594 323.652 95.9558 323.901 95.9558C331.347 96.4522 338.793 97.9414 345.99 100.175C349.465 101.416 353.188 102.905 356.167 105.387C359.145 108.118 360.882 112.089 360.386 115.315C360.882 115.812 361.131 116.308 361.379 116.308Z" fill="white"/>
<path d="M219.16 326.782C203.772 306.677 183.171 290.296 159.096 282.106C132.042 272.922 101.265 269.944 73.7152 279.127C24.0753 295.757 15.3883 322.562 14.3955 326.782H219.16Z" fill="#DBF7E3"/>
</g>
<defs>
<clipPath id="clip0">
<rect width="517" height="325.886" fill="white" transform="translate(0 0.895508)"/>
</clipPath>
</defs>
</svg>
