<svg width="60" height="60" viewBox="0 0 60 60" fill="none" xmlns="http://www.w3.org/2000/svg">
<rect width="60" height="60" fill="#1E1E1E"/>
<g clip-path="url(#clip0_43_24)">
<rect width="1920" height="3777" transform="translate(-930 -84)" fill="white"/>
<mask id="path-1-inside-1_43_24" fill="white">
<path d="M-930 -17H990V78H-930V-17Z"/>
</mask>
<path d="M-930 -17H990V78H-930V-17Z" fill="white"/>
<path d="M990 77H-930V79H990V77Z" fill="#F1F1F3" mask="url(#path-1-inside-1_43_24)"/>
<path d="M6 53.9998C6 50.8481 6.62077 47.7272 7.82689 44.8154C9.033 41.9036 10.8008 39.2579 13.0294 37.0292C15.258 34.8006 17.9038 33.0328 20.8156 31.8267C23.7274 30.6206 26.8482 29.9998 30 29.9998V53.9998L6 53.9998Z" fill="#1A1A1A"/>
<path d="M30 29.9998C30 33.1515 30.6208 36.2724 31.8269 39.1842C33.033 42.096 34.8008 44.7418 37.0294 46.9704C39.258 49.199 41.9038 50.9668 44.8156 52.1729C47.7274 53.379 50.8483 53.9998 54 53.9998L54 29.9998L30 29.9998Z" fill="#FFD400"/>
<path d="M30 29.9998C30 26.8481 29.3792 23.7272 28.1731 20.8154C26.967 17.9036 25.1991 15.2578 22.9705 13.0292C20.7419 10.8006 18.0962 9.03282 15.1844 7.82671C12.2726 6.62059 9.15172 5.99982 6 5.99982L6 29.9998H30Z" fill="#FFD400"/>
<path d="M54 5.99988C54 9.1516 53.3792 12.2725 52.1731 15.1843C50.967 18.0961 49.1991 20.7418 46.9705 22.9704C44.7419 25.199 42.0962 26.9668 39.1844 28.173C36.2726 29.3791 33.1517 29.9998 30 29.9998L30 5.99988H54Z" fill="#1A1A1A"/>
</g>
<defs>
<clipPath id="clip0_43_24">
<rect width="1920" height="3777" fill="white" transform="translate(-930 -84)"/>
</clipPath>
</defs>
</svg>
